<svg xmlns="http://www.w3.org/2000/svg" width="12" height="16.286" viewBox="0 0 12 16.286">
  <path id="mic_FILL0_wght400_GRAD0_opsz24" d="M206-869.714a2.48,2.48,0,0,1-1.821-.75,2.48,2.48,0,0,1-.75-1.821v-5.143a2.48,2.48,0,0,1,.75-1.821A2.48,2.48,0,0,1,206-880a2.48,2.48,0,0,1,1.821.75,2.48,2.48,0,0,1,.75,1.821v5.143a2.48,2.48,0,0,1-.75,1.821A2.48,2.48,0,0,1,206-869.714ZM206-874.857Zm-.857,11.143v-2.636a5.713,5.713,0,0,1-3.686-1.993A5.859,5.859,0,0,1,200-872.286h1.714a4.13,4.13,0,0,0,1.254,3.032A4.13,4.13,0,0,0,206-868a4.13,4.13,0,0,0,3.032-1.254,4.13,4.13,0,0,0,1.254-3.032H212a5.859,5.859,0,0,1-1.457,3.943,5.713,5.713,0,0,1-3.686,1.993v2.636Zm.857-7.714a.829.829,0,0,0,.611-.246.829.829,0,0,0,.246-.611v-5.143a.83.83,0,0,0-.246-.611.829.829,0,0,0-.611-.246.829.829,0,0,0-.611.246.83.83,0,0,0-.246.611v5.143a.829.829,0,0,0,.246.611A.83.83,0,0,0,206-871.429Z" transform="translate(-200 880)" fill="#797979"/>
</svg>
