<svg xmlns="http://www.w3.org/2000/svg" width="18" height="9.848" viewBox="0 0 18 9.848">
  <path id="link_FILL0_wght400_GRAD0_opsz24" d="M88.1-670.152H84.5a4.158,4.158,0,0,1-3.184-1.44A4.98,4.98,0,0,1,80-675.076a4.981,4.981,0,0,1,1.316-3.484A4.158,4.158,0,0,1,84.5-680h3.6v1.97H84.5a2.5,2.5,0,0,0-1.912.862,2.991,2.991,0,0,0-.788,2.093,2.991,2.991,0,0,0,.788,2.093,2.5,2.5,0,0,0,1.912.862h3.6Zm-2.7-3.939v-1.97h7.2v1.97Zm4.5,3.939v-1.97h3.6a2.5,2.5,0,0,0,1.913-.862,2.991,2.991,0,0,0,.788-2.093,2.991,2.991,0,0,0-.788-2.093,2.5,2.5,0,0,0-1.913-.862H89.9V-680h3.6a4.158,4.158,0,0,1,3.184,1.44A4.981,4.981,0,0,1,98-675.076a4.98,4.98,0,0,1-1.316,3.484,4.158,4.158,0,0,1-3.184,1.44Z" transform="translate(-80 680)" fill="#838383"/>
</svg>
