<svg xmlns="http://www.w3.org/2000/svg" width="13" height="13" viewBox="0 0 13 13">
  <path id="image_FILL0_wght400_GRAD0_opsz24" d="M121.444-827a1.391,1.391,0,0,1-1.02-.424,1.391,1.391,0,0,1-.424-1.02v-10.111a1.391,1.391,0,0,1,.424-1.02,1.391,1.391,0,0,1,1.02-.424h10.111a1.391,1.391,0,0,1,1.02.424,1.391,1.391,0,0,1,.424,1.02v10.111a1.391,1.391,0,0,1-.424,1.02,1.391,1.391,0,0,1-1.02.424Zm0-1.444h10.111v-10.111H121.444Zm.722-1.445h8.667l-2.708-3.611-2.167,2.889-1.625-2.167Zm-.722,1.445v0Z" transform="translate(-120 840)" fill="#797979"/>
</svg>
