<svg xmlns="http://www.w3.org/2000/svg" width="21.2" height="21.2" viewBox="0 0 21.2 21.2">
  <path id="radio_button_checked_FILL0_wght400_GRAD0_opsz24" d="M90.6-864.1a5.108,5.108,0,0,0,3.75-1.55,5.108,5.108,0,0,0,1.55-3.75,5.108,5.108,0,0,0-1.55-3.75,5.108,5.108,0,0,0-3.75-1.55,5.108,5.108,0,0,0-3.75,1.55,5.108,5.108,0,0,0-1.55,3.75,5.108,5.108,0,0,0,1.55,3.75A5.108,5.108,0,0,0,90.6-864.1Zm0,5.3a10.323,10.323,0,0,1-4.134-.835A10.705,10.705,0,0,1,83.1-861.9a10.7,10.7,0,0,1-2.266-3.366A10.322,10.322,0,0,1,80-869.4a10.322,10.322,0,0,1,.835-4.134A10.7,10.7,0,0,1,83.1-876.9a10.705,10.705,0,0,1,3.366-2.266A10.322,10.322,0,0,1,90.6-880a10.322,10.322,0,0,1,4.134.835A10.705,10.705,0,0,1,98.1-876.9a10.7,10.7,0,0,1,2.266,3.366,10.322,10.322,0,0,1,.835,4.134,10.322,10.322,0,0,1-.835,4.134A10.7,10.7,0,0,1,98.1-861.9a10.705,10.705,0,0,1-3.366,2.266A10.323,10.323,0,0,1,90.6-858.8Zm0-2.12a8.184,8.184,0,0,0,6.016-2.465A8.184,8.184,0,0,0,99.08-869.4a8.184,8.184,0,0,0-2.465-6.016A8.184,8.184,0,0,0,90.6-877.88a8.184,8.184,0,0,0-6.016,2.464A8.184,8.184,0,0,0,82.12-869.4a8.184,8.184,0,0,0,2.465,6.016A8.184,8.184,0,0,0,90.6-860.92ZM90.6-869.4Z" transform="translate(-80 880)"/>
</svg>
